<svg width="41" height="41" viewBox="0 0 41 41" fill="none" xmlns="http://www.w3.org/2000/svg">
<path d="M35.0791 35.0807H29.1523V25.799C29.1523 23.5857 29.1128 20.7365 26.0698 20.7365C22.983 20.7365 22.5106 23.148 22.5106 25.6379V35.08H16.5841V15.9932H22.2736V18.6016H22.3533C22.9227 17.628 23.7455 16.8271 24.734 16.2841C25.7226 15.7412 26.8399 15.4765 27.967 15.5183C33.9741 15.5183 35.0816 19.4696 35.0816 24.6099L35.0791 35.0807ZM9.89657 13.3843C7.99704 13.3846 6.45688 11.8449 6.45657 9.94536C6.45625 8.04583 7.99579 6.50567 9.89532 6.50536C11.7948 6.50489 13.335 8.04458 13.3353 9.94411C13.3355 10.8563 12.9733 11.7312 12.3284 12.3764C11.6835 13.0215 10.8088 13.3841 9.89657 13.3843ZM12.86 35.0808H6.92704V15.9932H12.8598V35.0807L12.86 35.0808ZM38.0338 1.00114H3.94891C2.33797 0.983016 1.01688 2.27348 0.997192 3.88442V38.1115C1.01625 39.7232 2.33719 41.0149 3.94875 40.998H38.0338C39.6488 41.018 40.9748 39.7263 40.9972 38.1115V3.88177C40.9742 2.2677 39.648 0.977391 38.0338 0.998485" fill="white" fill-opacity="0.38"/>
</svg>
