<svg width="41" height="40" viewBox="0 0 41 40" fill="none" xmlns="http://www.w3.org/2000/svg">
<path fill-rule="evenodd" clip-rule="evenodd" d="M20.5 0C9.17375 0 0 9.17638 0 20.5059C0 29.5797 5.86812 37.2438 14.0169 39.9608C15.0419 40.1403 15.4262 39.5251 15.4262 38.9868C15.4262 38.4998 15.4006 36.8849 15.4006 35.1676C10.25 36.116 8.9175 33.9116 8.5075 32.7581C8.27688 32.1686 7.2775 30.3487 6.40625 29.8617C5.68875 29.4772 4.66375 28.5288 6.38062 28.5032C7.995 28.4775 9.14812 29.9898 9.5325 30.605C11.3775 33.7065 14.3244 32.835 15.5031 32.2968C15.6825 30.9639 16.2206 30.0667 16.81 29.5541C12.2488 29.0414 7.4825 27.2728 7.4825 19.4293C7.4825 17.1993 8.27688 15.3538 9.58375 13.9184C9.37875 13.4057 8.66125 11.3039 9.78875 8.48431C9.78875 8.48431 11.5056 7.94603 15.4262 10.5862C17.0662 10.1248 18.8088 9.89408 20.5513 9.89408C22.2938 9.89408 24.0363 10.1248 25.6763 10.5862C29.5969 7.92039 31.3138 8.48431 31.3138 8.48431C32.4412 11.3039 31.7238 13.4057 31.5188 13.9184C32.8256 15.3538 33.62 17.1737 33.62 19.4293C33.62 27.2984 28.8281 29.0414 24.2669 29.5541C25.01 30.1949 25.6506 31.4253 25.6506 33.3477C25.6506 36.0903 25.625 38.2947 25.625 38.9868C25.625 39.5251 26.0094 40.1659 27.0344 39.9608C31.1039 38.5865 34.6402 35.9702 37.1454 32.4802C39.6507 28.9903 40.9988 24.8023 41 20.5059C41 9.17638 31.8263 0 20.5 0Z" fill="white" fill-opacity="0.38"/>
</svg>
