<svg width="40" height="40" viewBox="0 0 40 40" fill="none" xmlns="http://www.w3.org/2000/svg">
<path d="M0 20C0 28.5383 5.35167 35.8283 12.8833 38.6967C12.7 37.135 12.505 34.56 12.925 32.7533C13.2867 31.2 15.26 22.8567 15.26 22.8567C15.26 22.8567 14.665 21.665 14.665 19.9C14.665 17.1333 16.2683 15.0667 18.2667 15.0667C19.9667 15.0667 20.7867 16.3417 20.7867 17.87C20.7867 19.5783 19.6983 22.1317 19.1367 24.5C18.6683 26.4817 20.1317 28.0983 22.085 28.0983C25.6233 28.0983 28.345 24.3667 28.345 18.98C28.345 14.2117 24.9183 10.88 20.0267 10.88C14.3633 10.88 11.0383 15.1283 11.0383 19.52C11.0383 21.2317 11.6967 23.065 12.52 24.0633C12.5902 24.1387 12.6398 24.2309 12.664 24.3311C12.6882 24.4312 12.6863 24.5359 12.6583 24.635C12.5067 25.265 12.17 26.6167 12.105 26.8933C12.0167 27.2567 11.8167 27.335 11.4383 27.1583C8.95167 26.0017 7.39833 22.3667 7.39833 19.4467C7.39833 13.165 11.96 7.39833 20.5517 7.39833C27.4583 7.39833 32.8267 12.32 32.8267 18.8967C32.8267 25.7583 28.5017 31.2817 22.495 31.2817C20.4767 31.2817 18.5817 30.2317 17.9317 28.9933C17.9317 28.9933 16.9333 32.7967 16.6917 33.7267C16.2217 35.5333 14.9183 37.82 14.11 39.1183C15.9733 39.6917 17.95 40 20 40C31.045 40 40 31.045 40 20C40 8.955 31.045 0 20 0C8.955 0 0 8.955 0 20Z" fill="white" fill-opacity="0.38"/>
</svg>
