<svg width="250" height="192" viewBox="0 0 250 192" fill="none" xmlns="http://www.w3.org/2000/svg">
<path opacity="0.4" d="M0.165001 136.572C0.165001 95.402 2.492 65.867 7.146 47.967C12.158 29.709 22.003 17.179 36.681 10.377C51.717 3.57499 76.24 0.173993 110.25 0.173993V63.003C91.992 63.003 79.999 63.361 74.271 64.077C68.543 64.793 64.784 66.941 62.994 70.521C61.204 74.101 60.309 80.903 60.309 90.927H110.25V191.346H0.165001V136.572ZM139.785 136.572C139.785 95.402 142.112 65.867 146.766 47.967C151.778 29.709 161.623 17.179 176.301 10.377C191.337 3.57499 215.86 0.173993 249.87 0.173993V63.003C231.612 63.003 219.619 63.361 213.891 64.077C208.163 64.793 204.404 66.941 202.614 70.521C200.824 74.101 199.929 80.903 199.929 90.927H249.87V191.346H139.785V136.572Z" fill="white" fill-opacity="0.11"/>
</svg>
