<svg width="273" height="36" viewBox="0 0 273 36" fill="none" xmlns="http://www.w3.org/2000/svg">
<path opacity="0.5" d="M1.014 13.472C1.014 11.7493 1.74867 10.394 3.218 9.406C4.71267 8.39267 6.372 7.886 8.196 7.886C10.02 7.886 11.426 8.152 12.414 8.684C13.4273 9.19067 13.934 9.79867 13.934 10.508C13.934 11.2173 13.44 11.7367 12.452 12.066C12.2747 11.6607 11.7807 11.2807 10.97 10.926C10.1847 10.5713 9.20933 10.394 8.044 10.394C6.87867 10.394 5.916 10.622 5.156 11.078C4.42133 11.5087 4.054 12.1293 4.054 12.94C4.054 13.7253 4.33267 14.3333 4.89 14.764C5.44733 15.1947 6.752 15.6507 8.804 16.132C10.8813 16.588 12.4647 17.2593 13.554 18.146C14.6433 19.0327 15.188 20.274 15.188 21.87C15.188 23.466 14.4533 24.7707 12.984 25.784C11.5147 26.772 9.70333 27.266 7.55 27.266C5.422 27.266 3.712 27 2.42 26.468C1.15333 25.9107 0.52 25.1887 0.52 24.302C0.52 23.4153 0.938 22.7693 1.774 22.364C2.12867 23.048 2.81267 23.6307 3.826 24.112C4.83933 24.5933 6.106 24.834 7.626 24.834C9.146 24.834 10.2987 24.5553 11.084 23.998C11.8947 23.4407 12.3 22.7567 12.3 21.946C12.3 21.11 11.9327 20.464 11.198 20.008C10.4887 19.5267 9.08267 19.058 6.98 18.602C4.90267 18.146 3.38267 17.5 2.42 16.664C1.48267 15.8027 1.014 14.7387 1.014 13.472ZM21.4538 8.266H21.6818C22.6445 8.266 23.1258 8.73467 23.1258 9.672V25.556C23.1258 26.5187 22.6445 27 21.6818 27H21.4538C20.4912 27 20.0098 26.5187 20.0098 25.556V9.672C20.0098 8.73467 20.4912 8.266 21.4538 8.266ZM19.4778 2.908C19.4778 2.32533 19.6805 1.83133 20.0858 1.426C20.4912 0.995331 20.9725 0.779998 21.5298 0.779998C22.1125 0.779998 22.6065 0.995331 23.0118 1.426C23.4425 1.83133 23.6578 2.32533 23.6578 2.908C23.6578 3.46533 23.4552 3.95933 23.0498 4.39C22.6445 4.79533 22.1505 4.998 21.5678 4.998C20.9852 4.998 20.4912 4.79533 20.0858 4.39C19.6805 3.98467 19.4778 3.49067 19.4778 2.908ZM30.7532 8.266H31.0192C31.9818 8.266 32.4632 8.74733 32.4632 9.71V11.572C32.9445 10.6093 33.7045 9.76067 34.7432 9.026C35.7818 8.29133 36.9725 7.924 38.3152 7.924C40.3672 7.924 42.0392 8.54467 43.3312 9.786C44.6485 11.002 45.3072 12.94 45.3072 15.6V25.556C45.3072 26.0627 45.1932 26.43 44.9652 26.658C44.7372 26.886 44.3698 27 43.8632 27H43.5592C42.6218 27 42.1532 26.5187 42.1532 25.556V15.714C42.1532 13.8647 41.7605 12.5473 40.9752 11.762C40.1898 10.9767 39.0498 10.584 37.5552 10.584C36.0605 10.584 34.8445 11.192 33.9072 12.408C32.9698 13.624 32.5012 15.2327 32.5012 17.234V25.556C32.5012 26.5187 32.0072 27 31.0192 27H30.7532C30.2465 27 29.8792 26.886 29.6512 26.658C29.4232 26.43 29.3092 26.0627 29.3092 25.556V9.71C29.3092 8.74733 29.7905 8.266 30.7532 8.266ZM57.2255 21.566L55.5155 21.49C54.9075 21.49 54.3882 21.6547 53.9575 21.984C53.5268 22.288 53.3115 22.63 53.3115 23.01C53.3115 23.9727 54.1222 24.454 55.7435 24.454H58.5555C63.9515 24.454 66.6495 26.1133 66.6495 29.432C66.6495 31.18 65.8008 32.5987 64.1035 33.688C62.4315 34.7773 60.2782 35.3727 57.6435 35.474H56.7315C54.5782 35.474 52.7415 35.0433 51.2215 34.182C49.7015 33.3207 48.9415 32.3073 48.9415 31.142C48.9415 30.5847 49.0682 30.1413 49.3215 29.812C49.6002 29.4827 49.9548 29.2927 50.3855 29.242C50.8668 30.23 51.7155 31.0533 52.9315 31.712C54.1475 32.3707 55.5788 32.7 57.2255 32.7H57.4915C59.3915 32.7 60.8735 32.4087 61.9375 31.826C63.0268 31.2433 63.5715 30.5087 63.5715 29.622C63.5715 28.7607 63.0902 28.1273 62.1275 27.722C61.1902 27.342 59.5562 27.152 57.2255 27.152C54.9202 27.152 53.1848 26.924 52.0195 26.468C50.8542 26.012 50.2715 25.1253 50.2715 23.808C50.2715 22.4907 51.1962 21.452 53.0455 20.692C50.8415 19.4507 49.7395 17.4747 49.7395 14.764C49.7395 12.6107 50.4742 10.9387 51.9435 9.748C53.4128 8.55733 55.2242 7.962 57.3775 7.962C58.4668 7.962 59.4675 8.19 60.3795 8.646C61.3168 9.102 62.0262 9.596 62.5075 10.128C63.4702 9.49467 63.9515 8.342 63.9515 6.67C64.6355 6.67 65.2435 6.88533 65.7755 7.316C66.3075 7.72133 66.5735 8.24067 66.5735 8.874C66.5735 10.1407 65.6362 11.0527 63.7615 11.61C64.3188 12.37 64.5975 13.4847 64.5975 14.954C64.5975 17.1073 63.8882 18.754 62.4695 19.894C61.0762 21.0087 59.3282 21.566 57.2255 21.566ZM60.4175 11.496C59.5815 10.7613 58.5175 10.394 57.2255 10.394C55.9335 10.394 54.8568 10.7613 53.9955 11.496C53.1342 12.2053 52.7035 13.3073 52.7035 14.802C52.7035 16.2967 53.1342 17.4113 53.9955 18.146C54.8568 18.8553 55.9335 19.21 57.2255 19.21C58.5175 19.21 59.5815 18.8553 60.4175 18.146C61.2788 17.4113 61.7095 16.2967 61.7095 14.802C61.7095 13.3073 61.2788 12.2053 60.4175 11.496ZM71.9817 0.361999H72.2477C73.2103 0.361999 73.6917 0.843332 73.6917 1.806V12.066C74.1223 10.9513 74.857 10.0013 75.8957 9.216C76.9343 8.43067 78.1503 8.038 79.5437 8.038C81.6717 8.038 83.369 8.646 84.6357 9.862C85.9023 11.0527 86.5357 12.9907 86.5357 15.676V25.556C86.5357 26.0627 86.4217 26.43 86.1937 26.658C85.9657 26.886 85.5983 27 85.0917 27H84.7877C83.8503 27 83.3817 26.5187 83.3817 25.556V15.866C83.3817 12.3447 81.8617 10.584 78.8217 10.584C77.2257 10.584 75.9717 11.2427 75.0597 12.56C74.173 13.8773 73.7297 15.5367 73.7297 17.538V25.556C73.7297 26.5187 73.2357 27 72.2477 27H71.9817C71.475 27 71.1077 26.886 70.8797 26.658C70.6517 26.43 70.5377 26.0627 70.5377 25.556V1.806C70.5377 0.843332 71.019 0.361999 71.9817 0.361999ZM93.5069 0.361999H93.7349C94.2416 0.361999 94.6089 0.475999 94.8369 0.703999C95.0649 0.931999 95.1789 1.29933 95.1789 1.806V15.752C96.6736 14.7133 98.1049 13.5353 99.4729 12.218C100.866 10.9007 101.918 9.91267 102.627 9.254C103.362 8.59533 104.008 8.266 104.565 8.266H105.629C105.933 8.266 106.174 8.35467 106.351 8.532C106.554 8.684 106.655 8.874 106.655 9.102C106.655 9.938 103.843 12.3447 98.2189 16.322C99.5616 17.386 101.107 18.8553 102.855 20.73C104.628 22.6047 106.022 24.226 107.035 25.594C107.187 25.822 107.263 26.0373 107.263 26.24C107.263 26.7467 106.946 27 106.313 27H105.401C104.59 27 104.008 26.7593 103.653 26.278C100.968 22.7567 98.1429 19.78 95.1789 17.348V25.556C95.1789 26.0627 95.0649 26.43 94.8369 26.658C94.6089 26.886 94.2416 27 93.7349 27H93.5069C93.0002 27 92.6329 26.886 92.4049 26.658C92.1769 26.43 92.0629 26.0627 92.0629 25.556V1.806C92.0629 1.29933 92.1769 0.931999 92.4049 0.703999C92.6329 0.475999 93.0002 0.361999 93.5069 0.361999ZM112.16 8.304H112.426C113.389 8.304 113.87 8.77267 113.87 9.71V19.476C113.87 22.9467 115.403 24.682 118.468 24.682C119.634 24.682 120.609 24.34 121.394 23.656C122.813 22.44 123.522 20.616 123.522 18.184V9.71C123.522 8.77267 124.016 8.304 125.004 8.304H125.27C125.777 8.304 126.132 8.418 126.334 8.646C126.562 8.84867 126.676 9.20333 126.676 9.71V25.594C126.676 26.1007 126.562 26.468 126.334 26.696C126.106 26.8987 125.739 27 125.232 27H125.004C124.016 27 123.522 26.5313 123.522 25.594V23.694C123.168 24.5047 122.408 25.3153 121.242 26.126C120.102 26.9113 118.874 27.304 117.556 27.304C112.996 27.304 110.716 24.758 110.716 19.666V9.71C110.716 8.77267 111.198 8.304 112.16 8.304ZM133.843 8.266H134.109C135.072 8.266 135.553 8.74733 135.553 9.71V11.572C136.034 10.6093 136.794 9.76067 137.833 9.026C138.872 8.29133 140.062 7.924 141.405 7.924C143.457 7.924 145.129 8.54467 146.421 9.786C147.738 11.002 148.397 12.94 148.397 15.6V25.556C148.397 26.0627 148.283 26.43 148.055 26.658C147.827 26.886 147.46 27 146.953 27H146.649C145.712 27 145.243 26.5187 145.243 25.556V15.714C145.243 13.8647 144.85 12.5473 144.065 11.762C143.28 10.9767 142.14 10.584 140.645 10.584C139.15 10.584 137.934 11.192 136.997 12.408C136.06 13.624 135.591 15.2327 135.591 17.234V25.556C135.591 26.5187 135.097 27 134.109 27H133.843C133.336 27 132.969 26.886 132.741 26.658C132.513 26.43 132.399 26.0627 132.399 25.556V9.71C132.399 8.74733 132.88 8.266 133.843 8.266ZM160.201 7.962C165.572 7.962 168.257 10.4573 168.257 15.448V22.972C168.257 24.3653 168.789 25.252 169.853 25.632C169.473 26.5947 168.764 27.076 167.725 27.076C166.965 27.076 166.357 26.81 165.901 26.278C165.471 25.7207 165.255 24.9987 165.255 24.112C163.659 26.24 161.595 27.304 159.061 27.304C157.009 27.304 155.388 26.7847 154.197 25.746C153.032 24.682 152.449 23.2633 152.449 21.49C152.449 19.6913 153.133 18.2347 154.501 17.12C155.895 16.0053 157.769 15.448 160.125 15.448C161.544 15.448 162.735 15.6 163.697 15.904C164.483 16.1827 164.951 16.36 165.103 16.436V14.764C165.103 13.2187 164.711 12.1293 163.925 11.496C163.14 10.8373 161.949 10.508 160.353 10.508C158.099 10.508 156.351 11.3693 155.109 13.092C154.045 12.94 153.513 12.446 153.513 11.61C153.513 10.6473 154.172 9.79867 155.489 9.064C156.807 8.32933 158.377 7.962 160.201 7.962ZM165.103 18.868C163.507 18.1587 161.937 17.804 160.391 17.804C158.846 17.804 157.655 18.1333 156.819 18.792C155.983 19.4507 155.565 20.312 155.565 21.376C155.565 22.4147 155.92 23.2507 156.629 23.884C157.364 24.492 158.428 24.796 159.821 24.796C161.24 24.796 162.469 24.2893 163.507 23.276C164.571 22.2627 165.103 21.034 165.103 19.59V18.868ZM175.522 0.361999H175.788C176.751 0.361999 177.232 0.830665 177.232 1.768V25.556C177.232 26.5187 176.751 27 175.788 27H175.522C174.99 27 174.61 26.886 174.382 26.658C174.18 26.43 174.078 26.0627 174.078 25.556V1.768C174.078 1.26133 174.18 0.906666 174.382 0.703999C174.61 0.475999 174.99 0.361999 175.522 0.361999ZM182.674 6.67C182.674 5.12467 183.396 3.76933 184.84 2.604C186.284 1.43867 188.273 0.855999 190.806 0.855999C193.34 0.855999 195.303 1.52733 196.696 2.87C198.09 4.18733 198.786 5.82133 198.786 7.772C198.786 9.72267 198.14 11.534 196.848 13.206C195.556 14.8527 192.668 17.8547 188.184 22.212C187.323 23.048 186.664 23.694 186.208 24.15H197.798C198.862 24.15 199.394 24.6313 199.394 25.594C199.394 26.5313 198.862 27 197.798 27H183.7C182.662 27 182.142 26.4553 182.142 25.366C182.142 24.454 182.548 23.694 183.358 23.086C188.374 18.3233 191.68 15.0173 193.276 13.168C194.872 11.2933 195.67 9.672 195.67 8.304C195.67 6.91067 195.189 5.80866 194.226 4.998C193.289 4.162 191.984 3.744 190.312 3.744C188.666 3.744 187.374 4.25067 186.436 5.264C185.499 6.27733 184.954 7.354 184.802 8.494C183.384 8.494 182.674 7.886 182.674 6.67ZM206.678 4.276C208.73 1.996 211.327 0.855999 214.468 0.855999C217.61 0.855999 220.194 1.996 222.22 4.276C224.247 6.53067 225.26 9.77333 225.26 14.004C225.26 18.2093 224.234 21.4773 222.182 23.808C220.156 26.1387 217.584 27.304 214.468 27.304C211.352 27.304 208.756 26.1387 206.678 23.808C204.626 21.4773 203.6 18.2093 203.6 14.004C203.6 9.79867 204.626 6.556 206.678 4.276ZM221.688 14.118C221.688 10.8753 220.992 8.35467 219.598 6.556C218.23 4.732 216.508 3.82 214.43 3.82C212.353 3.82 210.63 4.732 209.262 6.556C207.92 8.35467 207.248 10.8753 207.248 14.118C207.248 17.3353 207.882 19.856 209.148 21.68C210.415 23.4787 212.176 24.378 214.43 24.378C216.71 24.378 218.484 23.4787 219.75 21.68C221.042 19.856 221.688 17.3353 221.688 14.118ZM233.561 1.198H245.189C246.202 1.198 246.709 1.67933 246.709 2.642C246.709 3.60467 246.202 4.086 245.189 4.086H234.701L234.131 11.648C235.347 11.2933 236.867 11.116 238.691 11.116C241.224 11.116 243.301 11.762 244.923 13.054C246.544 14.346 247.355 16.246 247.355 18.754C247.355 21.262 246.405 23.314 244.505 24.91C242.605 26.506 240.299 27.304 237.589 27.304C234.903 27.304 232.839 26.9747 231.395 26.316C229.951 25.632 229.229 24.682 229.229 23.466C229.229 22.554 229.761 21.9207 230.825 21.566C231.154 22.554 231.939 23.2887 233.181 23.77C234.447 24.226 235.967 24.454 237.741 24.454C239.539 24.454 241.097 23.96 242.415 22.972C243.732 21.984 244.391 20.6413 244.391 18.944C244.391 17.2213 243.808 15.9547 242.643 15.144C241.503 14.3333 240.147 13.928 238.577 13.928C237.006 13.928 235.321 14.194 233.523 14.726C233.295 14.802 233.003 14.84 232.649 14.84C232.319 14.84 231.99 14.688 231.661 14.384C231.331 14.0547 231.167 13.6367 231.167 13.13L232.003 2.604C232.053 2.09733 232.18 1.74266 232.383 1.54C232.611 1.312 233.003 1.198 233.561 1.198ZM254.215 4.276C256.267 1.996 258.864 0.855999 262.005 0.855999C265.147 0.855999 267.731 1.996 269.757 4.276C271.784 6.53067 272.797 9.77333 272.797 14.004C272.797 18.2093 271.771 21.4773 269.719 23.808C267.693 26.1387 265.121 27.304 262.005 27.304C258.889 27.304 256.293 26.1387 254.215 23.808C252.163 21.4773 251.137 18.2093 251.137 14.004C251.137 9.79867 252.163 6.556 254.215 4.276ZM269.225 14.118C269.225 10.8753 268.529 8.35467 267.135 6.556C265.767 4.732 264.045 3.82 261.967 3.82C259.89 3.82 258.167 4.732 256.799 6.556C255.457 8.35467 254.785 10.8753 254.785 14.118C254.785 17.3353 255.419 19.856 256.685 21.68C257.952 23.4787 259.713 24.378 261.967 24.378C264.247 24.378 266.021 23.4787 267.287 21.68C268.579 19.856 269.225 17.3353 269.225 14.118Z" fill="white"/>
</svg>
