<svg width="38" height="31" viewBox="0 0 38 31" fill="none" xmlns="http://www.w3.org/2000/svg">
<path d="M37.4198 4.0226C36.063 4.62385 34.6053 5.0301 33.073 5.21372C34.6541 4.26764 35.837 2.77861 36.401 1.02447C34.9155 1.90683 33.2896 2.52791 31.5942 2.86072C30.4541 1.64338 28.9439 0.836503 27.2982 0.565368C25.6525 0.294233 23.9634 0.574009 22.493 1.36126C21.0226 2.14851 19.8532 3.39919 19.1665 4.91912C18.4797 6.43905 18.314 8.14319 18.695 9.76697C15.6849 9.61584 12.7404 8.83349 10.0523 7.47069C7.36419 6.1079 4.9927 4.19511 3.09171 1.85647C2.44171 2.97772 2.06796 4.27772 2.06796 5.66222C2.06723 6.90859 2.37416 8.13587 2.96151 9.23516C3.54886 10.3345 4.39847 11.2718 5.43496 11.964C4.23291 11.9257 3.05738 11.6009 2.00621 11.0166V11.1141C2.00609 12.8622 2.61076 14.5565 3.71763 15.9095C4.8245 17.2625 6.36539 18.1909 8.07883 18.5371C6.96373 18.8389 5.79463 18.8833 4.65983 18.6671C5.14327 20.1712 6.08495 21.4865 7.35306 22.4289C8.62116 23.3712 10.1522 23.8934 11.7318 23.9223C9.05031 26.0274 5.73865 27.1692 2.32958 27.1642C1.7257 27.1644 1.12233 27.1291 0.522583 27.0586C3.98298 29.2835 8.01114 30.4643 12.1251 30.4597C26.0513 30.4597 33.6645 18.9255 33.6645 8.92197C33.6645 8.59697 33.6563 8.26872 33.6417 7.94372C35.1226 6.87281 36.4008 5.54668 37.4166 4.02747L37.4198 4.0226Z" fill="white" fill-opacity="0.38"/>
</svg>
