<svg width="39" height="39" viewBox="0 0 39 39" fill="none" xmlns="http://www.w3.org/2000/svg">
<path fill-rule="evenodd" clip-rule="evenodd" d="M11.371 0.116084C13.4341 0.0211062 14.0919 0 19.3474 0C24.6029 0 25.2607 0.0228651 27.3221 0.116084C29.3834 0.209304 30.7905 0.53821 32.0217 1.01486C33.3109 1.50206 34.4806 2.26365 35.448 3.2486C36.4329 4.21422 37.1927 5.3821 37.6782 6.6731C38.1566 7.90429 38.4837 9.31138 38.5787 11.3692C38.6737 13.4359 38.6948 14.0937 38.6948 19.3474C38.6948 24.6029 38.6719 25.2607 38.5787 27.3238C38.4855 29.3817 38.1566 30.7888 37.6782 32.02C37.1927 33.3111 36.4317 34.4809 35.448 35.448C34.4806 36.4329 33.3109 37.1927 32.0217 37.6782C30.7905 38.1566 29.3834 38.4837 27.3256 38.5787C25.2607 38.6737 24.6029 38.6948 19.3474 38.6948C14.0919 38.6948 13.4341 38.6719 11.371 38.5787C9.31314 38.4855 7.90605 38.1566 6.67485 37.6782C5.38371 37.1927 4.2139 36.4316 3.24685 35.448C2.26256 34.4818 1.50086 33.3125 1.01486 32.0217C0.53821 30.7905 0.211063 29.3834 0.116084 27.3256C0.0211062 25.2589 0 24.6011 0 19.3474C0 14.0919 0.0228651 13.4341 0.116084 11.3728C0.209304 9.31138 0.53821 7.90429 1.01486 6.6731C1.50157 5.38224 2.26385 4.21301 3.2486 3.24685C4.21429 2.26277 5.38293 1.50108 6.6731 1.01486C7.90429 0.53821 9.31138 0.211063 11.3692 0.116084H11.371ZM27.1655 3.59862C25.1252 3.5054 24.5132 3.48605 19.3474 3.48605C14.1816 3.48605 13.5696 3.5054 11.5293 3.59862C9.64204 3.6848 8.61839 3.99964 7.93595 4.26522C7.03366 4.61699 6.38816 5.03384 5.711 5.711C5.0691 6.33549 4.5751 7.09572 4.26522 7.93595C3.99964 8.61839 3.6848 9.64204 3.59862 11.5293C3.5054 13.5696 3.48605 14.1816 3.48605 19.3474C3.48605 24.5132 3.5054 25.1252 3.59862 27.1655C3.6848 29.0528 3.99964 30.0764 4.26522 30.7589C4.57478 31.5978 5.06902 32.3594 5.711 32.9838C6.3354 33.6258 7.09698 34.12 7.93595 34.4296C8.61839 34.6952 9.64204 35.01 11.5293 35.0962C13.5696 35.1894 14.1799 35.2088 19.3474 35.2088C24.5149 35.2088 25.1252 35.1894 27.1655 35.0962C29.0528 35.01 30.0764 34.6952 30.7589 34.4296C31.6611 34.0778 32.3066 33.661 32.9838 32.9838C33.6258 32.3594 34.12 31.5978 34.4296 30.7589C34.6952 30.0764 35.01 29.0528 35.0962 27.1655C35.1894 25.1252 35.2088 24.5132 35.2088 19.3474C35.2088 14.1816 35.1894 13.5696 35.0962 11.5293C35.01 9.64204 34.6952 8.61839 34.4296 7.93595C34.0778 7.03366 33.661 6.38816 32.9838 5.711C32.3593 5.06914 31.5991 4.57515 30.7589 4.26522C30.0764 3.99964 29.0528 3.6848 27.1655 3.59862ZM16.8762 25.3117C18.2563 25.8862 19.7931 25.9637 21.224 25.531C22.6549 25.0984 23.8912 24.1823 24.7218 22.9394C25.5523 21.6965 25.9256 20.2037 25.7779 18.7162C25.6301 17.2286 24.9705 15.8384 23.9116 14.7832C23.2366 14.1086 22.4205 13.5921 21.5219 13.2708C20.6234 12.9495 19.6648 12.8315 18.7151 12.9251C17.7654 13.0188 16.8483 13.3219 16.0299 13.8125C15.2114 14.3032 14.5119 14.9692 13.9817 15.7626C13.4515 16.556 13.1038 17.4571 12.9637 18.4011C12.8235 19.345 12.8944 20.3083 13.1713 21.2215C13.4481 22.1347 13.9239 22.9752 14.5646 23.6825C15.2052 24.3897 15.9947 24.9462 16.8762 25.3117ZM12.3155 12.3155C13.2389 11.3921 14.3352 10.6595 15.5418 10.1598C16.7483 9.66002 18.0415 9.40279 19.3474 9.40279C20.6533 9.40279 21.9465 9.66002 23.153 10.1598C24.3596 10.6595 25.4559 11.3921 26.3793 12.3155C27.3027 13.2389 28.0353 14.3352 28.535 15.5418C29.0348 16.7483 29.292 18.0415 29.292 19.3474C29.292 20.6533 29.0348 21.9465 28.535 23.153C28.0353 24.3596 27.3027 25.4559 26.3793 26.3793C24.5143 28.2443 21.9849 29.292 19.3474 29.292C16.7099 29.292 14.1805 28.2443 12.3155 26.3793C10.4505 24.5143 9.40279 21.9849 9.40279 19.3474C9.40279 16.7099 10.4505 14.1805 12.3155 12.3155ZM31.4976 10.8838C31.7264 10.6679 31.9096 10.4083 32.0363 10.1204C32.163 9.83247 32.2307 9.52203 32.2353 9.20748C32.2398 8.89293 32.1813 8.58066 32.063 8.28915C31.9447 7.99764 31.7692 7.73282 31.5467 7.51038C31.3243 7.28793 31.0595 7.11238 30.768 6.99412C30.4765 6.87585 30.1642 6.81728 29.8496 6.82186C29.5351 6.82645 29.2247 6.8941 28.9367 7.02081C28.6488 7.14753 28.3892 7.33072 28.1733 7.55956C27.7535 8.0046 27.5237 8.59574 27.5326 9.20748C27.5415 9.81923 27.7885 10.4034 28.2211 10.836C28.6537 11.2686 29.2379 11.5156 29.8496 11.5245C30.4614 11.5335 31.0525 11.3036 31.4976 10.8838Z" fill="white" fill-opacity="0.38"/>
</svg>
