<svg width="40" height="39" viewBox="0 0 40 39" fill="none" xmlns="http://www.w3.org/2000/svg">
<path fill="black" fill-rule="evenodd" clip-rule="evenodd" d="M18.9533 0.308347C19.5867 -0.102782 20.4117 -0.102782 21.0467 0.308347L39.1533 12.0247C39.6817 12.366 40 12.9429 40 13.562V25.4376C40 26.0551 39.6833 26.6336 39.1533 26.9765L21.0467 38.6929C20.4133 39.1024 19.5883 39.1024 18.9533 38.6929L0.846667 26.9749C0.586475 26.8066 0.373011 26.5781 0.22529 26.3099C0.077568 26.0417 0.000173723 25.742 0 25.4376L0 13.562C0 12.9445 0.316667 12.366 0.846667 12.0231L18.9533 0.308347ZM3.78667 17.0021V21.9714L7.6 19.4689L3.78667 17.0021ZM11.015 21.6789L5.3 25.4279L18.1067 33.7154V26.268L11.0167 21.6789H11.015ZM21.8933 26.268V33.7138L34.7 25.4262L28.9833 21.6789L21.8933 26.268ZM32.3983 19.4705L36.215 21.9731V17.0005L32.3983 19.4705ZM34.6833 13.562L29 17.2394L21.8933 12.5789V5.28577L34.6833 13.562ZM18.1067 5.28577V12.5772L11.0017 17.2378L5.31667 13.562L18.1067 5.28577ZM20 15.7866L14.4167 19.4494L20 23.0618L25.5833 19.4494L20 15.7866Z" fill="#850505"/>
</svg>
