<svg width="42" height="41" viewBox="0 0 42 41" fill="none" xmlns="http://www.w3.org/2000/svg">
<path  fill="black" fill-rule="evenodd" clip-rule="evenodd" d="M20.5028 0.00177002C9.17656 0.00177002 0.00280762 9.17815 0.00280762 20.5076C0.00280762 29.5815 5.87093 37.2456 14.0197 39.9626C15.0447 40.142 15.4291 39.5268 15.4291 38.9886C15.4291 38.5016 15.4034 36.8867 15.4034 35.1693C10.2528 36.1177 8.92031 33.9134 8.51031 32.7599C8.27968 32.1704 7.28031 30.3505 6.40906 29.8635C5.69156 29.479 4.66656 28.5306 6.38343 28.5049C7.99781 28.4793 9.15093 29.9916 9.53531 30.6068C11.3803 33.7083 14.3272 32.8368 15.5059 32.2985C15.6853 30.9656 16.2234 30.0685 16.8128 29.5559C12.2516 29.0432 7.48531 27.2746 7.48531 19.4311C7.48531 17.2011 8.27968 15.3555 9.58656 13.9201C9.38156 13.4075 8.66406 11.3056 9.79156 8.48608C9.79156 8.48608 11.5084 7.9478 15.4291 10.5879C17.0691 10.1265 18.8116 9.89585 20.5541 9.89585C22.2966 9.89585 24.0391 10.1265 25.6791 10.5879C29.5997 7.92216 31.3166 8.48608 31.3166 8.48608C32.4441 11.3056 31.7266 13.4075 31.5216 13.9201C32.8284 15.3555 33.6228 17.1754 33.6228 19.4311C33.6228 27.3002 28.8309 29.0432 24.2697 29.5559C25.0128 30.1967 25.6534 31.427 25.6534 33.3494C25.6534 36.0921 25.6278 38.2965 25.6278 38.9886C25.6278 39.5268 26.0122 40.1677 27.0372 39.9626C31.1067 38.5882 34.643 35.972 37.1482 32.482C39.6535 28.992 41.0016 24.8041 41.0028 20.5076C41.0028 9.17815 31.8291 0.00177002 20.5028 0.00177002Z" fill="#850505"/>
</svg>
