<svg width="39" height="39" viewBox="0 0 39 39" fill="none" xmlns="http://www.w3.org/2000/svg">
<path fill="black" fill-rule="evenodd" clip-rule="evenodd" d="M11.3738 0.117854C13.4369 0.0228762 14.0948 0.00177002 19.3502 0.00177002C24.6057 0.00177002 25.2635 0.0246351 27.3249 0.117854C29.3862 0.211074 30.7933 0.53998 32.0245 1.01663C33.3138 1.50383 34.4834 2.26542 35.4508 3.25037C36.4357 4.21599 37.1956 5.38387 37.681 6.67487C38.1594 7.90606 38.4865 9.31315 38.5815 11.371C38.6765 13.4377 38.6976 14.0955 38.6976 19.3492C38.6976 24.6046 38.6747 25.2624 38.5815 27.3256C38.4883 29.3834 38.1594 30.7905 37.681 32.0217C37.1955 33.3129 36.4345 34.4827 35.4508 35.4497C34.4834 36.4347 33.3138 37.1945 32.0245 37.68C30.7933 38.1584 29.3862 38.4855 27.3284 38.5805C25.2635 38.6755 24.6057 38.6966 19.3502 38.6966C14.0948 38.6966 13.4369 38.6737 11.3738 38.5805C9.31594 38.4873 7.90886 38.1584 6.67766 37.68C5.38652 37.1945 4.21671 36.4334 3.24965 35.4497C2.26536 34.4835 1.50366 33.3143 1.01767 32.0235C0.541017 30.7923 0.21387 29.3852 0.118892 27.3273C0.0239138 25.2607 0.00280762 24.6029 0.00280762 19.3492C0.00280762 14.0937 0.0256727 13.4359 0.118892 11.3745C0.212111 9.31315 0.541017 7.90606 1.01767 6.67487C1.50438 5.38401 2.26666 4.21478 3.25141 3.24862C4.21709 2.26454 5.38573 1.50285 6.6759 1.01663C7.9071 0.53998 9.31419 0.212833 11.372 0.117854H11.3738ZM27.1683 3.60039C25.128 3.50717 24.516 3.48782 19.3502 3.48782C14.1845 3.48782 13.5724 3.50717 11.5321 3.60039C9.64485 3.68657 8.6212 4.00141 7.93876 4.26699C7.03647 4.61876 6.39097 5.03561 5.71381 5.71277C5.07191 6.33726 4.57791 7.09749 4.26803 7.93772C4.00244 8.62016 3.68761 9.64381 3.60142 11.5311C3.50821 13.5713 3.48886 14.1834 3.48886 19.3492C3.48886 24.5149 3.50821 25.127 3.60142 27.1673C3.68761 29.0545 4.00244 30.0782 4.26803 30.7606C4.57759 31.5996 5.07183 32.3612 5.71381 32.9856C6.3382 33.6276 7.09979 34.1218 7.93876 34.4314C8.6212 34.6969 9.64485 35.0118 11.5321 35.098C13.5724 35.1912 14.1827 35.2105 19.3502 35.2105C24.5177 35.2105 25.128 35.1912 27.1683 35.098C29.0556 35.0118 30.0792 34.6969 30.7617 34.4314C31.664 34.0796 32.3095 33.6627 32.9866 32.9856C33.6286 32.3612 34.1228 31.5996 34.4324 30.7606C34.698 30.0782 35.0128 29.0545 35.099 27.1673C35.1922 25.127 35.2116 24.5149 35.2116 19.3492C35.2116 14.1834 35.1922 13.5713 35.099 11.5311C35.0128 9.64381 34.698 8.62016 34.4324 7.93772C34.0806 7.03543 33.6638 6.38993 32.9866 5.71277C32.3621 5.07091 31.6019 4.57692 30.7617 4.26699C30.0792 4.00141 29.0556 3.68657 27.1683 3.60039ZM16.879 25.3134C18.2591 25.8879 19.7959 25.9655 21.2268 25.5328C22.6577 25.1001 23.894 24.1841 24.7246 22.9412C25.5551 21.6982 25.9284 20.2055 25.7807 18.7179C25.6329 17.2303 24.9733 15.8402 23.9144 14.7849C23.2395 14.1104 22.4233 13.5939 21.5247 13.2726C20.6262 12.9513 19.6676 12.8332 18.7179 12.9269C17.7682 13.0206 16.8511 13.3236 16.0327 13.8143C15.2142 14.3049 14.5147 14.9709 13.9845 15.7644C13.4543 16.5578 13.1066 17.4589 12.9665 18.4028C12.8263 19.3468 12.8972 20.31 13.1741 21.2233C13.4509 22.1365 13.9267 22.977 14.5674 23.6843C15.208 24.3915 15.9975 24.9479 16.879 25.3134ZM12.3183 12.3173C13.2418 11.3938 14.338 10.6613 15.5446 10.1616C16.7511 9.66179 18.0443 9.40456 19.3502 9.40456C20.6562 9.40456 21.9493 9.66179 23.1558 10.1615C24.3624 10.6613 25.4587 11.3938 26.3821 12.3173C27.3056 13.2407 28.0381 14.337 28.5378 15.5435C29.0376 16.7501 29.2948 18.0432 29.2948 19.3492C29.2948 20.6551 29.0376 21.9483 28.5378 23.1548C28.0381 24.3613 27.3056 25.4576 26.3821 26.3811C24.5171 28.246 21.9877 29.2938 19.3502 29.2938C16.7127 29.2938 14.1833 28.246 12.3183 26.3811C10.4533 24.5161 9.4056 21.9866 9.4056 19.3492C9.4056 16.7117 10.4533 14.1822 12.3183 12.3173ZM31.5004 10.8856C31.7292 10.6697 31.9124 10.4101 32.0391 10.1222C32.1658 9.83424 32.2335 9.5238 32.2381 9.20925C32.2427 8.8947 32.1841 8.58243 32.0658 8.29092C31.9476 7.99941 31.772 7.73459 31.5496 7.51215C31.3271 7.2897 31.0623 7.11415 30.7708 6.99589C30.4793 6.87762 30.167 6.81905 29.8525 6.82363C29.5379 6.82822 29.2275 6.89587 28.9395 7.02258C28.6516 7.1493 28.392 7.33249 28.1761 7.56133C27.7563 8.00637 27.5265 8.59751 27.5354 9.20925C27.5443 9.821 27.7913 10.4052 28.2239 10.8378C28.6565 11.2704 29.2407 11.5174 29.8525 11.5263C30.4642 11.5352 31.0553 11.3054 31.5004 10.8856Z" fill="#850505"/>
</svg>
