<svg width="40" height="40" viewBox="0 0 40 40" fill="none" xmlns="http://www.w3.org/2000/svg">
<path fill="black" d="M34.0819 34.0824H28.1552V24.8007C28.1552 22.5874 28.1156 19.7382 25.0727 19.7382C21.9858 19.7382 21.5134 22.1498 21.5134 24.6396V34.0818H15.5869V14.9949H21.2764V17.6034H21.3561C21.9255 16.6298 22.7483 15.8289 23.7368 15.2859C24.7254 14.7429 25.8428 14.4783 26.9698 14.5201C32.9769 14.5201 34.0844 18.4713 34.0844 23.6117L34.0819 34.0824ZM8.89937 12.386C6.99984 12.3863 5.45969 10.8467 5.45937 8.94713C5.45906 7.0476 6.99859 5.50744 8.89812 5.50713C10.7977 5.50666 12.3378 7.04635 12.3381 8.94588C12.3383 9.85807 11.9761 10.733 11.3312 11.3781C10.6863 12.0233 9.81157 12.3858 8.89937 12.386ZM11.8628 34.0826H5.92984V14.9949H11.8627V34.0824L11.8628 34.0826ZM37.0366 0.00291123H2.95172C1.34078 -0.0152138 0.0196875 1.27525 0 2.88619V37.1132C0.0190625 38.7249 1.34 40.0167 2.95156 39.9998H37.0366C38.6516 40.0198 39.9777 38.7281 40 37.1132V2.88354C39.977 1.26947 38.6508 -0.0208388 37.0366 0.000254983" fill="#850505"/>
</svg>
