<svg width="41" height="41" viewBox="0 0 41 41" fill="none" xmlns="http://www.w3.org/2000/svg">
<path fill="black" d="M0.00280762 20.0018C0.00280762 28.5401 5.35447 35.8301 12.8861 38.6984C12.7028 37.1368 12.5078 34.5618 12.9278 32.7551C13.2895 31.2018 15.2628 22.8584 15.2628 22.8584C15.2628 22.8584 14.6678 21.6668 14.6678 19.9018C14.6678 17.1351 16.2711 15.0684 18.2695 15.0684C19.9695 15.0684 20.7895 16.3434 20.7895 17.8718C20.7895 19.5801 19.7011 22.1334 19.1395 24.5018C18.6711 26.4834 20.1345 28.1001 22.0878 28.1001C25.6261 28.1001 28.3478 24.3684 28.3478 18.9818C28.3478 14.2134 24.9211 10.8818 20.0295 10.8818C14.3661 10.8818 11.0411 15.1301 11.0411 19.5218C11.0411 21.2334 11.6995 23.0668 12.5228 24.0651C12.593 24.1405 12.6426 24.2327 12.6668 24.3328C12.6911 24.4329 12.6891 24.5376 12.6611 24.6368C12.5095 25.2668 12.1728 26.6184 12.1078 26.8951C12.0195 27.2584 11.8195 27.3368 11.4411 27.1601C8.95447 26.0034 7.40114 22.3684 7.40114 19.4484C7.40114 13.1668 11.9628 7.4001 20.5545 7.4001C27.4611 7.4001 32.8295 12.3218 32.8295 18.8984C32.8295 25.7601 28.5045 31.2834 22.4978 31.2834C20.4795 31.2834 18.5845 30.2334 17.9345 28.9951C17.9345 28.9951 16.9361 32.7984 16.6945 33.7284C16.2245 35.5351 14.9211 37.8218 14.1128 39.1201C15.9761 39.6934 17.9528 40.0018 20.0028 40.0018C31.0478 40.0018 40.0028 31.0468 40.0028 20.0018C40.0028 8.95677 31.0478 0.00177002 20.0028 0.00177002C8.95781 0.00177002 0.00280762 8.95677 0.00280762 20.0018Z" fill="#850505"/>
</svg>
