<svg width="41" height="41" viewBox="0 0 41 41" fill="none" xmlns="http://www.w3.org/2000/svg">
  <path fill="black" d="M37.4226 4.02437C36.0658 4.62562 34.6081 5.03187 33.0758 5.21549C34.6569 4.26941 35.8398 2.78038 36.4038 1.02624C34.9183 1.9086 33.2925 2.52968 31.597 2.86249C30.4569 1.64515 28.9467 0.838273 27.301 0.567138C25.6553 0.296003 23.9662 0.575779 22.4958 1.36303C21.0254 2.15028 19.856 3.40096 19.1693 4.92089C18.4825 6.44082 18.3168 8.14496 18.6978 9.76874C15.6878 9.61761 12.7432 8.83526 10.0551 7.47246C7.367 6.10967 4.99551 4.19688 3.09452 1.85824C2.44452 2.97949 2.07077 4.27949 2.07077 5.66399C2.07004 6.91036 2.37697 8.13764 2.96432 9.23693C3.55167 10.3362 4.40128 11.2736 5.43777 11.9657C4.23571 11.9275 3.06018 11.6027 2.00902 11.0184V11.1159C2.00889 12.8639 2.61357 14.5582 3.72044 15.9112C4.82731 17.2642 6.36819 18.1926 8.08164 18.5389C6.96654 18.8407 5.79744 18.8851 4.66264 18.6689C5.14607 20.173 6.08776 21.4883 7.35586 22.4306C8.62397 23.373 10.155 23.8952 11.7346 23.9241C9.05312 26.0292 5.74146 27.171 2.33239 27.166C1.72851 27.1662 1.12514 27.1309 0.525391 27.0604C3.98579 29.2853 8.01394 30.4661 12.1279 30.4615C26.0541 30.4615 33.6673 18.9272 33.6673 8.92374C33.6673 8.59874 33.6591 8.27049 33.6445 7.94549C35.1254 6.87458 36.4036 5.54845 37.4194 4.02924L37.4226 4.02437Z" fill="#850505"/>
</svg>
 <svg width="38" height="81" viewBox="0 0 38 81" fill="none" xmlns="http://www.w3.org/2000/svg">
        <path fill="white" d="M37.4226 4.02437C36.0658 4.62562 34.6081 5.03187 33.0758 5.21549C34.6569 4.26941 35.8398 2.78038 36.4038 1.02624C34.9183 1.9086 33.2925 2.52968 31.597 2.86249C30.4569 1.64515 28.9467 0.838273 27.301 0.567138C25.6553 0.296003 23.9662 0.575779 22.4958 1.36303C21.0254 2.15028 19.856 3.40096 19.1693 4.92089C18.4825 6.44082 18.3168 8.14496 18.6978 9.76874C15.6878 9.61761 12.7432 8.83526 10.0551 7.47246C7.367 6.10967 4.99551 4.19688 3.09452 1.85824C2.44452 2.97949 2.07077 4.27949 2.07077 5.66399C2.07004 6.91036 2.37697 8.13764 2.96432 9.23693C3.55167 10.3362 4.40128 11.2736 5.43777 11.9657C4.23571 11.9275 3.06018 11.6027 2.00902 11.0184V11.1159C2.00889 12.8639 2.61357 14.5582 3.72044 15.9112C4.82731 17.2642 6.36819 18.1926 8.08164 18.5389C6.96654 18.8407 5.79744 18.8851 4.66264 18.6689C5.14607 20.173 6.08776 21.4883 7.35586 22.4306C8.62397 23.373 10.155 23.8952 11.7346 23.9241C9.05312 26.0292 5.74146 27.171 2.33239 27.166C1.72851 27.1662 1.12514 27.1309 0.525391 27.0604C3.98579 29.2853 8.01394 30.4661 12.1279 30.4615C26.0541 30.4615 33.6673 18.9272 33.6673 8.92374C33.6673 8.59874 33.6591 8.27049 33.6445 7.94549C35.1254 6.87458 36.4036 5.54845 37.4194 4.02924L37.4226 4.02437Z" fill="white"/>
      </svg>